<svg xmlns="http://www.w3.org/2000/svg" width="217" height="65" viewBox="0 0 217 65" fill="none">
<path d="M193.786 2.19674e-06H23.1967C21.3269 -0.00120108 19.4897 0.491939 17.87 1.4298C16.2504 2.36766 14.9054 3.71715 13.9705 5.34247L1.42626 27.1575C0.491899 28.7818 0 30.6244 0 32.5C0 34.3756 0.491899 36.2182 1.42626 37.8425L13.9705 59.6575C14.9054 61.2828 16.2504 62.6323 17.87 63.5702C19.4897 64.508 21.3269 65.0012 23.1967 65H193.786C195.654 64.9996 197.489 64.5058 199.107 63.568C200.725 62.6302 202.069 61.2815 203.003 59.6575L215.574 37.8425C216.508 36.2182 217 34.3756 217 32.5C217 30.6244 216.508 28.7818 215.574 27.1575L203.003 5.34247C202.069 3.71845 200.725 2.3698 199.107 1.43202C197.489 0.494244 195.654 0.000362397 193.786 2.19674e-06Z" fill="#D5FF2F"/>
</svg>