<svg xmlns="http://www.w3.org/2000/svg" width="78" height="193" viewBox="0 0 78 193" fill="none">
  <path d="M27.8245 4.87131L19.9715 2L12.1186 4.87131L7.9303 12.1495L9.3857 20.4215L15.7885 25.8223H24.165L30.5731 20.4215L32.0233 12.1495L27.8245 4.87131ZM25.4948 17.4924L22.1494 20.3111H17.7832L14.443 17.4924L13.6839 13.1749L15.867 9.38333L19.9663 7.87932L24.0656 9.38333L26.2487 13.1749L25.4948 17.4924Z" stroke="#FF6F1F" stroke-width="2" stroke-miterlimit="10"/>
  <path d="M71.8012 4.87131L63.9482 2L56.0952 4.87131L51.907 12.1495L53.3624 20.4215L59.7652 25.8223H68.1417L74.5498 20.4215L76 12.1495L71.8012 4.87131ZM69.4715 17.4924L66.1262 20.3111H61.7599L58.4198 17.4924L57.6607 13.1749L59.8438 9.38333L63.9431 7.87932L68.0423 9.38333L70.2255 13.1749L69.4715 17.4924Z" stroke="#FF6F1F" stroke-width="2" stroke-miterlimit="10"/>
  <path d="M27.8245 46.4157L19.9715 43.5444L12.1186 46.4157L7.9303 53.6939L9.3857 61.966L15.7885 67.3667H24.165L30.5731 61.966L32.0233 53.6939L27.8245 46.4157ZM25.4948 59.0368L22.1494 61.8555H17.7832L14.443 59.0368L13.6839 54.7194L15.867 50.9278L19.9663 49.4238L24.0656 50.9278L26.2487 54.7194L25.4948 59.0368Z" stroke="#FF6F1F" stroke-width="2" stroke-miterlimit="10"/>
  <path d="M71.8012 46.4157L63.9482 43.5444L56.0952 46.4157L51.907 53.6939L53.3624 61.966L59.7652 67.3667H68.1417L74.5498 61.966L76 53.6939L71.8012 46.4157ZM69.4715 59.0368L66.1262 61.8555H61.7599L58.4198 59.0368L57.6607 54.7194L59.8438 50.9278L63.9431 49.4238L68.0423 50.9278L70.2255 54.7194L69.4715 59.0368Z" stroke="#FF6F1F" stroke-width="2" stroke-miterlimit="10"/>
  <path d="M27.8245 87.9602L19.9715 85.0889L12.1186 87.9602L7.9303 95.2383L9.3857 103.51L15.7885 108.911H24.165L30.5731 103.51L32.0233 95.2383L27.8245 87.9602ZM25.4948 100.581L22.1494 103.4H17.7832L14.443 100.581L13.6839 96.2638L15.867 92.4722L19.9663 90.9682L24.0656 92.4722L26.2487 96.2638L25.4948 100.581Z" stroke="#FF6F1F" stroke-width="2" stroke-miterlimit="10"/>
  <path d="M71.8012 87.9602L63.9482 85.0889L56.0952 87.9602L51.907 95.2383L53.3624 103.51L59.7652 108.911H68.1417L74.5498 103.51L76 95.2383L71.8012 87.9602ZM69.4715 100.581L66.1262 103.4H61.7599L58.4198 100.581L57.6607 96.2638L59.8438 92.4722L63.9431 90.9682L68.0423 92.4722L70.2255 96.2638L69.4715 100.581Z" stroke="#FF6F1F" stroke-width="2" stroke-miterlimit="10"/>
  <path d="M27.8245 129.505L19.9715 126.633L12.1186 129.505L7.9303 136.783L9.3857 145.055L15.7885 150.456H24.165L30.5731 145.055L32.0233 136.783L27.8245 129.505ZM25.4948 142.126L22.1494 144.944H17.7832L14.443 142.126L13.6839 137.808L15.867 134.017L19.9663 132.513L24.0656 134.017L26.2487 137.808L25.4948 142.126Z" stroke="#FF6F1F" stroke-width="2" stroke-miterlimit="10"/>
  <path d="M71.8012 129.505L63.9482 126.633L56.0952 129.505L51.907 136.783L53.3624 145.055L59.7652 150.456H68.1417L74.5498 145.055L76 136.783L71.8012 129.505ZM69.4715 142.126L66.1262 144.944H61.7599L58.4198 142.126L57.6607 137.808L59.8438 134.017L63.9431 132.513L68.0423 134.017L70.2255 137.808L69.4715 142.126Z" stroke="#FF6F1F" stroke-width="2" stroke-miterlimit="10"/>
  <path d="M27.8245 171.049L19.9715 168.178L12.1186 171.049L7.9303 178.327L9.3857 186.599L15.7885 192H24.165L30.5731 186.599L32.0233 178.327L27.8245 171.049ZM25.4948 183.67L22.1494 186.489H17.7832L14.443 183.67L13.6839 179.353L15.867 175.561L19.9663 174.057L24.0656 175.561L26.2487 179.353L25.4948 183.67Z" stroke="#FF6F1F" stroke-width="2" stroke-miterlimit="10"/>
  <path d="M71.8012 171.049L63.9482 168.178L56.0952 171.049L51.907 178.327L53.3624 186.599L59.7652 192H68.1417L74.5498 186.599L76 178.327L71.8012 171.049ZM69.4715 183.67L66.1262 186.489H61.7599L58.4198 183.67L57.6607 179.353L59.8438 175.561L63.9431 174.057L68.0423 175.561L70.2255 179.353L69.4715 183.67Z" stroke="#FF6F1F" stroke-width="2" stroke-miterlimit="10"/>
</svg>