<svg xmlns="http://www.w3.org/2000/svg" width="78" height="192" viewBox="0 0 78 192" fill="none">
<path d="M16.9876 1H7.63522L1 7.63031V17.0122L7.63522 23.6425H16.9876L23.6179 17.0122V7.63031L16.9876 1ZM18.1394 14.7381L14.7233 18.1837H9.88471L6.43911 14.7381V9.88964L9.88471 6.46865H14.7233L18.1394 9.88964V14.7381Z" stroke="#54EEEE" stroke-width="2" stroke-miterlimit="10"/>
<path d="M58.3333 1H48.981L42.3457 7.63031V17.0122L48.981 23.6425H58.3333L64.9636 17.0122V7.63031L58.3333 1ZM59.4851 14.7381L56.0691 18.1837H51.2304L47.7848 14.7381V9.88964L51.2304 6.46865H56.0691L59.4851 9.88964V14.7381Z" stroke="#54EEEE" stroke-width="2" stroke-miterlimit="10"/>
<path d="M16.9876 42.8394H7.63522L1 49.4697V58.8515L7.63522 65.4818H16.9876L23.6179 58.8515V49.4697L16.9876 42.8394ZM18.1394 56.5774L14.7233 60.023H9.88471L6.43911 56.5774V51.729L9.88471 48.308H14.7233L18.1394 51.729V56.5774Z" stroke="#54EEEE" stroke-width="2" stroke-miterlimit="10"/>
<path d="M58.3333 42.8394H48.981L42.3457 49.4697V58.8515L48.981 65.4818H58.3333L64.9636 58.8515V49.4697L58.3333 42.8394ZM59.4851 56.5774L56.0691 60.023H51.2304L47.7848 56.5774V51.729L51.2304 48.308H56.0691L59.4851 51.729V56.5774Z" stroke="#54EEEE" stroke-width="2" stroke-miterlimit="10"/>
<path d="M16.9876 84.6787H7.63522L1 91.309V100.691L7.63522 107.321H16.9876L23.6179 100.691V91.309L16.9876 84.6787ZM18.1394 98.4168L14.7233 101.838H9.88471L6.43911 98.4168V93.5683L9.88471 90.1474H14.7233L18.1394 93.5683V98.4168Z" stroke="#54EEEE" stroke-width="2" stroke-miterlimit="10"/>
<path d="M58.3333 84.6787H48.981L42.3457 91.309V100.691L48.981 107.321H58.3333L64.9636 100.691V91.309L58.3333 84.6787ZM59.4851 98.4168L56.0691 101.838H51.2304L47.7848 98.4168V93.5683L51.2304 90.1474H56.0691L59.4851 93.5683V98.4168Z" stroke="#54EEEE" stroke-width="2" stroke-miterlimit="10"/>
<path d="M16.9876 126.518H7.63522L1 133.148V142.53L7.63522 149.161H16.9876L23.6179 142.53V133.148L16.9876 126.518ZM18.1394 140.256L14.7233 143.677H9.88471L6.43911 140.256V135.408L9.88471 131.987H14.7233L18.1394 135.408V140.256Z" stroke="#54EEEE" stroke-width="2" stroke-miterlimit="10"/>
<path d="M58.3333 126.518H48.981L42.3457 133.148V142.53L48.981 149.161H58.3333L64.9636 142.53V133.148L58.3333 126.518ZM59.4851 140.256L56.0691 143.677H51.2304L47.7848 140.256V135.408L51.2304 131.987H56.0691L59.4851 135.408V140.256Z" stroke="#54EEEE" stroke-width="2" stroke-miterlimit="10"/>
<path d="M16.9876 168.357H7.63522L1 174.988V184.37L7.63522 191H16.9876L23.6179 184.37V174.988L16.9876 168.357ZM18.1394 182.096L14.7233 185.516H9.88471L6.43911 182.096V177.247L9.88471 173.826H14.7233L18.1394 177.247V182.096Z" stroke="#54EEEE" stroke-width="2" stroke-miterlimit="10"/>
<path d="M58.3333 168.357H48.981L42.3457 174.988V184.37L48.981 191H58.3333L64.9636 184.37V174.988L58.3333 168.357ZM59.4851 182.096L56.0691 185.516H51.2304L47.7848 182.096V177.247L51.2304 173.826H56.0691L59.4851 177.247V182.096Z" stroke="#54EEEE" stroke-width="2" stroke-miterlimit="10"/>
</svg>