<svg width="172" height="344" viewBox="0 0 172 344" fill="none" xmlns="http://www.w3.org/2000/svg">
<path d="M32.5333 26.0852L32.6829 25.9382V25.7285V17.0279V16.8182L32.5333 16.6713L26.2663 10.5135L26.1204 10.3702H25.9159H17.1241H16.9196L16.7737 10.5135L10.5067 16.6713L10.3571 16.8182V17.0279V25.7285V25.9382L10.5067 26.0852L16.7737 32.2429L16.9196 32.3863H17.1241H25.9159H26.1204L26.2663 32.2429L32.5333 26.0852ZM1.5 13.1698L13.292 1.5H29.8913L41.6833 13.1698V29.5867L29.8913 41.2565H13.292L1.5 29.5867V13.1698Z" fill="#361281" stroke="#54F2F2"/>
<path d="M30.0969 1H13.0864L1 12.9611V29.7953L13.0864 41.7565H30.0969L42.1833 29.7953V12.9611L30.0969 1ZM32.1829 25.7285L25.9159 31.8863H17.1241L10.8571 25.7285V17.0279L17.1241 10.8702H25.9159L32.1829 17.0279V25.7285Z" fill="#361281" stroke="#54F2F2" stroke-width="2" stroke-miterlimit="10"/>
<path d="M107.738 26.0852L107.887 25.9382V25.7285V17.0279V16.8182L107.738 16.6713L101.471 10.5135L101.325 10.3702H101.12H92.3285H92.124L91.9781 10.5135L85.711 16.6713L85.5615 16.8182V17.0279V25.7285V25.9382L85.711 26.0852L91.9781 32.2429L92.124 32.3863H92.3285H101.12H101.325L101.471 32.2429L107.738 26.0852ZM76.7043 13.1698L88.4963 1.5H105.096L116.888 13.1698V29.5867L105.096 41.2565H88.4963L76.7043 29.5867V13.1698Z" fill="#361281" stroke="#54F2F2"/>
<path d="M105.301 1H88.2907L76.2043 12.9611V29.7953L88.2907 41.7565H105.301L117.388 29.7953V12.9611L105.301 1ZM107.387 25.7285L101.12 31.8863H92.3285L86.0615 25.7285V17.0279L92.3285 10.8702H101.12L107.387 17.0279V25.7285Z" fill="#361281" stroke="#54F2F2" stroke-width="2" stroke-miterlimit="10"/>
<path d="M182.942 26.0852L183.092 25.9382V25.7285V17.0279V16.8182L182.942 16.6713L176.675 10.5135L176.529 10.3702H176.325H167.533H167.328L167.182 10.5135L160.915 16.6713L160.766 16.8182V17.0279V25.7285V25.9382L160.915 26.0852L167.182 32.2429L167.328 32.3863H167.533H176.325H176.529L176.675 32.2429L182.942 26.0852ZM151.909 13.1698L163.701 1.5H180.3L192.092 13.1698V29.5867L180.3 41.2565H163.701L151.909 29.5867V13.1698Z" fill="#361281" stroke="#54F2F2"/>
<path d="M180.506 1H163.495L151.409 12.9611V29.7953L163.495 41.7565H180.506L192.592 29.7953V12.9611L180.506 1ZM182.592 25.7285L176.325 31.8863H167.533L161.266 25.7285V17.0279L167.533 10.8702H176.325L182.592 17.0279V25.7285Z" fill="#361281" stroke="#54F2F2" stroke-width="2" stroke-miterlimit="10"/>
<path d="M32.5333 101.396L32.6829 101.249V101.039V92.3387V92.129L32.5333 91.9821L26.2663 85.8243L26.1204 85.681H25.9159H17.1241H16.9196L16.7737 85.8243L10.5067 91.9821L10.3571 92.129V92.3387V101.039V101.249L10.5067 101.396L16.7737 107.554L16.9196 107.697H17.1241H25.9159H26.1204L26.2663 107.554L32.5333 101.396ZM1.5 88.4806L13.292 76.8108H29.8913L41.6833 88.4806V104.897L29.8913 116.567H13.292L1.5 104.897V88.4806Z" fill="#361281" stroke="#54F2F2"/>
<path d="M30.0969 76.3108H13.0864L1 88.2719V105.106L13.0864 117.067H30.0969L42.1833 105.106V88.2719L30.0969 76.3108ZM32.1829 101.039L25.9159 107.197H17.1241L10.8571 101.039V92.3387L17.1241 86.181H25.9159L32.1829 92.3387V101.039Z" fill="#361281" stroke="#54F2F2" stroke-width="2" stroke-miterlimit="10"/>
<path d="M107.738 101.396L107.887 101.249V101.039V92.3387V92.129L107.738 91.9821L101.471 85.8243L101.325 85.681H101.12H92.3285H92.124L91.9781 85.8243L85.711 91.9821L85.5615 92.129V92.3387V101.039V101.249L85.711 101.396L91.9781 107.554L92.124 107.697H92.3285H101.12H101.325L101.471 107.554L107.738 101.396ZM76.7043 88.4806L88.4963 76.8108H105.096L116.888 88.4806V104.897L105.096 116.567H88.4963L76.7043 104.897V88.4806Z" fill="#361281" stroke="#54F2F2"/>
<path d="M105.301 76.3108H88.2907L76.2043 88.2719V105.106L88.2907 117.067H105.301L117.388 105.106V88.2719L105.301 76.3108ZM107.387 101.039L101.12 107.197H92.3285L86.0615 101.039V92.3387L92.3285 86.181H101.12L107.387 92.3387V101.039Z" fill="#361281" stroke="#54F2F2" stroke-width="2" stroke-miterlimit="10"/>
<path d="M182.941 101.396L183.091 101.249V101.039V92.3387V92.129L182.941 91.9821L176.674 85.8243L176.529 85.681H176.324H167.532H167.328L167.182 85.8243L160.915 91.9821L160.765 92.129V92.3387V101.039V101.249L160.915 101.396L167.182 107.554L167.328 107.697H167.532H176.324H176.529L176.674 107.554L182.941 101.396ZM151.908 88.4806L163.7 76.8108H180.299L192.091 88.4806V104.897L180.299 116.567H163.7L151.908 104.897V88.4806Z" fill="#361281" stroke="#54F2F2"/>
<path d="M180.505 76.3108H163.495L151.408 88.2719V105.106L163.495 117.067H180.505L192.591 105.106V88.2719L180.505 76.3108ZM182.591 101.039L176.324 107.197H167.532L161.265 101.039V92.3387L167.532 86.181H176.324L182.591 92.3387V101.039Z" fill="#361281" stroke="#54F2F2" stroke-width="2" stroke-miterlimit="10"/>
<path d="M32.5346 176.705L32.6829 176.558V176.35V167.649V167.441L32.5346 167.294L26.2676 161.092L26.1215 160.947H25.9159H17.1241H16.9186L16.7724 161.092L10.5054 167.294L10.3571 167.441V167.649V176.35V176.558L10.5054 176.705L16.7724 182.907L16.9186 183.052H17.1241H25.9159H26.1215L26.2676 182.907L32.5346 176.705ZM1.5 163.791L13.292 152.121H29.8913L41.6833 163.791V180.208L29.8913 191.878H13.292L1.5 180.208V163.791Z" fill="#361281" stroke="#54F2F2"/>
<path d="M30.0969 151.621H13.0864L1 163.582V180.417L13.0864 192.378H30.0969L42.1833 180.417V163.582L30.0969 151.621ZM32.1829 176.35L25.9159 182.552H17.1241L10.8571 176.35V167.649L17.1241 161.447H25.9159L32.1829 167.649V176.35Z" fill="#361281" stroke="#54F2F2" stroke-width="2" stroke-miterlimit="10"/>
<path d="M107.739 176.705L107.887 176.558V176.35V167.649V167.441L107.739 167.294L101.472 161.092L101.326 160.947H101.12H92.3285H92.1229L91.9768 161.092L85.7098 167.294L85.5615 167.441V167.649V176.35V176.558L85.7098 176.705L91.9768 182.907L92.1229 183.052H92.3285H101.12H101.326L101.472 182.907L107.739 176.705ZM76.7043 163.791L88.4963 152.121H105.096L116.888 163.791V180.208L105.096 191.878H88.4963L76.7043 180.208V163.791Z" fill="#361281" stroke="#54F2F2"/>
<path d="M105.301 151.621H88.2907L76.2043 163.582V180.417L88.2907 192.378H105.301L117.388 180.417V163.582L105.301 151.621ZM107.387 176.35L101.12 182.552H92.3285L86.0615 176.35V167.649L92.3285 161.447H101.12L107.387 167.649V176.35Z" fill="#361281" stroke="#54F2F2" stroke-width="2" stroke-miterlimit="10"/>
<path d="M182.943 176.705L183.091 176.558V176.35V167.649V167.441L182.943 167.294L176.676 161.092L176.53 160.947H176.324H167.532H167.327L167.181 161.092L160.914 167.294L160.765 167.441V167.649V176.35V176.558L160.914 176.705L167.181 182.907L167.327 183.052H167.532H176.324H176.53L176.676 182.907L182.943 176.705ZM151.908 163.791L163.7 152.121H180.299L192.091 163.791V180.208L180.299 191.878H163.7L151.908 180.208V163.791Z" fill="#361281" stroke="#54F2F2"/>
<path d="M180.505 151.621H163.495L151.408 163.582V180.417L163.495 192.378H180.505L192.591 180.417V163.582L180.505 151.621ZM182.591 176.35L176.324 182.552H167.532L161.265 176.35V167.649L167.532 161.447H176.324L182.591 167.649V176.35Z" fill="#361281" stroke="#54F2F2" stroke-width="2" stroke-miterlimit="10"/>
<path d="M32.5346 252.016L32.6829 251.869V251.661V242.96V242.752L32.5346 242.605L26.2676 236.403L26.1215 236.258H25.9159H17.1241H16.9186L16.7724 236.403L10.5054 242.605L10.3571 242.752V242.96V251.661V251.869L10.5054 252.016L16.7724 258.218L16.9186 258.363H17.1241H25.9159H26.1215L26.2676 258.218L32.5346 252.016ZM1.5 239.102L13.292 227.432H29.8913L41.6833 239.102V255.519L29.8913 267.189H13.292L1.5 255.519V239.102Z" fill="#361281" stroke="#54F2F2"/>
<path d="M30.0969 226.932H13.0864L1 238.893V255.728L13.0864 267.689H30.0969L42.1833 255.728V238.893L30.0969 226.932ZM32.1829 251.661L25.9159 257.863H17.1241L10.8571 251.661V242.96L17.1241 236.758H25.9159L32.1829 242.96V251.661Z" fill="#361281" stroke="#54F2F2" stroke-width="2" stroke-miterlimit="10"/>
<path d="M107.739 252.016L107.887 251.869V251.661V242.96V242.752L107.739 242.605L101.472 236.403L101.326 236.258H101.12H92.3285H92.1229L91.9768 236.403L85.7098 242.605L85.5615 242.752V242.96V251.661V251.869L85.7098 252.016L91.9768 258.218L92.1229 258.363H92.3285H101.12H101.326L101.472 258.218L107.739 252.016ZM76.7043 239.102L88.4963 227.432H105.096L116.888 239.102V255.519L105.096 267.189H88.4963L76.7043 255.519V239.102Z" fill="#361281" stroke="#54F2F2"/>
<path d="M105.301 226.932H88.2907L76.2043 238.893V255.728L88.2907 267.689H105.301L117.388 255.728V238.893L105.301 226.932ZM107.387 251.661L101.12 257.863H92.3285L86.0615 251.661V242.96L92.3285 236.758H101.12L107.387 242.96V251.661Z" fill="#361281" stroke="#54F2F2" stroke-width="2" stroke-miterlimit="10"/>
<path d="M182.943 252.016L183.091 251.869V251.661V242.96V242.752L182.943 242.605L176.676 236.403L176.53 236.258H176.324H167.532H167.327L167.181 236.403L160.914 242.605L160.765 242.752V242.96V251.661V251.869L160.914 252.016L167.181 258.218L167.327 258.363H167.532H176.324H176.53L176.676 258.218L182.943 252.016ZM151.908 239.102L163.7 227.432H180.299L192.091 239.102V255.519L180.299 267.189H163.7L151.908 255.519V239.102Z" fill="#361281" stroke="#54F2F2"/>
<path d="M180.505 226.932H163.495L151.408 238.893V255.728L163.495 267.689H180.505L192.591 255.728V238.893L180.505 226.932ZM182.591 251.661L176.324 257.863H167.532L161.265 251.661V242.96L167.532 236.758H176.324L182.591 242.96V251.661Z" fill="#361281" stroke="#54F2F2" stroke-width="2" stroke-miterlimit="10"/>
<path d="M32.5346 327.327L32.6829 327.181V326.972V318.271V318.063L32.5346 317.916L26.2676 311.714L26.1215 311.569H25.9159H17.1241H16.9186L16.7724 311.714L10.5054 317.916L10.3571 318.063V318.271V326.972V327.181L10.5054 327.327L16.7724 333.53L16.9186 333.674H17.1241H25.9159H26.1215L26.2676 333.53L32.5346 327.327ZM1.5 314.413L13.292 302.744H29.8913L41.6833 314.413V330.83L29.8913 342.5H13.292L1.5 330.83V314.413Z" fill="#361281" stroke="#54F2F2"/>
<path d="M30.0969 302.244H13.0864L1 314.205V331.039L13.0864 343H30.0969L42.1833 331.039V314.205L30.0969 302.244ZM32.1829 326.972L25.9159 333.174H17.1241L10.8571 326.972V318.271L17.1241 312.069H25.9159L32.1829 318.271V326.972Z" fill="#361281" stroke="#54F2F2" stroke-width="2" stroke-miterlimit="10"/>
<path d="M107.739 327.327L107.887 327.181V326.972V318.271V318.063L107.739 317.916L101.472 311.714L101.326 311.569H101.12H92.3285H92.1229L91.9768 311.714L85.7098 317.916L85.5615 318.063V318.271V326.972V327.181L85.7098 327.327L91.9768 333.53L92.1229 333.674H92.3285H101.12H101.326L101.472 333.53L107.739 327.327ZM76.7043 314.413L88.4963 302.744H105.096L116.888 314.413V330.83L105.096 342.5H88.4963L76.7043 330.83V314.413Z" fill="#361281" stroke="#54F2F2"/>
<path d="M105.301 302.244H88.2907L76.2043 314.205V331.039L88.2907 343H105.301L117.388 331.039V314.205L105.301 302.244ZM107.387 326.972L101.12 333.174H92.3285L86.0615 326.972V318.271L92.3285 312.069H101.12L107.387 318.271V326.972Z" fill="#361281" stroke="#54F2F2" stroke-width="2" stroke-miterlimit="10"/>
<path d="M182.943 327.327L183.091 327.181V326.972V318.271V318.063L182.943 317.916L176.676 311.714L176.53 311.569H176.324H167.532H167.327L167.181 311.714L160.914 317.916L160.765 318.063V318.271V326.972V327.181L160.914 327.327L167.181 333.53L167.327 333.674H167.532H176.324H176.53L176.676 333.53L182.943 327.327ZM151.908 314.413L163.7 302.744H180.299L192.091 314.413V330.83L180.299 342.5H163.7L151.908 330.83V314.413Z" fill="#361281" stroke="#54F2F2"/>
<path d="M180.505 302.244H163.495L151.408 314.205V331.039L163.495 343H180.505L192.591 331.039V314.205L180.505 302.244ZM182.591 326.972L176.324 333.174H167.532L161.265 326.972V318.271L167.532 312.069H176.324L182.591 318.271V326.972Z" fill="#361281" stroke="#54F2F2" stroke-width="2" stroke-miterlimit="10"/>
</svg>
