<svg xmlns="http://www.w3.org/2000/svg" width="62" height="62" viewBox="0 0 62 62" fill="none">
<path d="M55.578 15.2198C55.2493 13.7423 54.2688 12.4933 52.9117 11.8229L33.2143 2.09371C31.8186 1.40433 30.1814 1.40432 28.7857 2.09371L9.08829 11.8229C7.73115 12.4933 6.75074 13.7423 6.42195 15.2198L1.51118 37.2881C1.18743 38.743 1.52962 40.2665 2.44446 41.4432L16.1481 59.069C17.0954 60.2873 18.5522 61 20.0954 61H41.9045C43.4478 61 44.9046 60.2873 45.8519 59.069L59.5555 41.4432C60.4704 40.2665 60.8126 38.743 60.4888 37.2881L55.578 15.2198ZM39.6562 45.878C38.7088 47.0936 37.2537 47.8044 35.7125 47.8044H26.2904C24.7476 47.8044 23.2911 47.0921 22.3438 45.8743L16.3677 38.1916C15.4525 37.015 15.1099 35.4914 15.4335 34.0363L17.5854 24.3602C17.9141 22.8819 18.8952 21.6322 20.2532 20.962L28.7957 16.7459C30.1906 16.0574 31.8265 16.0574 33.2215 16.7459L41.7639 20.962C43.122 21.6322 44.103 22.8819 44.4318 24.3602L46.583 34.0335C46.907 35.4902 46.5634 37.0155 45.646 38.1925L39.6562 45.878Z" fill="#361281" stroke="#D5FF2F" stroke-width="1.5" stroke-miterlimit="10"/>
</svg>