<svg xmlns="http://www.w3.org/2000/svg" width="218" height="40" viewBox="0 0 218 40" fill="none">
  <line opacity="0.3" x1="181" y1="11" x2="181" y2="29" stroke="white" stroke-width="2" stroke-linecap="round"/>
  <path d="M121.531 29.5236H126.194V11.935H121.531V29.5236ZM121.531 9.19214H126.194V5.00928H121.531V9.19214Z" fill="white"/>
  <path d="M129.199 35.2837H133.862V27.5351H133.93C134.924 29.0437 136.536 30.038 139.004 30.038C143.53 30.038 146.616 26.438 146.616 20.7466C146.616 15.2608 143.633 11.4551 138.97 11.4551C136.57 11.4551 134.924 12.5866 133.793 14.1294H133.69V11.9351H129.199V35.2837ZM138.01 26.1637C135.233 26.1637 133.759 24.0723 133.759 20.8837C133.759 17.7294 134.924 15.2266 137.839 15.2266C140.719 15.2266 141.884 17.558 141.884 20.8837C141.884 24.2094 140.376 26.1637 138.01 26.1637Z" fill="white"/>
  <path d="M155.917 30.038C160.306 30.038 163.323 27.9123 163.323 24.3808C163.323 20.2666 160.066 19.4437 157.117 18.8266C154.614 18.3123 152.283 18.1751 152.283 16.6666C152.283 15.398 153.483 14.7123 155.3 14.7123C157.289 14.7123 158.489 15.398 158.694 17.2837H162.911C162.569 13.7523 159.997 11.4551 155.369 11.4551C151.357 11.4551 148.203 13.2723 148.203 17.078C148.203 20.918 151.289 21.7751 154.443 22.3923C156.843 22.8723 159.071 23.0437 159.071 24.7237C159.071 25.958 157.906 26.7466 155.849 26.7466C153.757 26.7466 152.317 25.8551 152.009 23.8323H147.689C147.963 27.5694 150.809 30.038 155.917 30.038Z" fill="white"/>
  <path d="M181.026 29.5237V11.9351H176.363V22.0837C176.363 24.4151 175.026 26.0608 172.832 26.0608C170.843 26.0608 169.918 24.9294 169.918 22.8723V11.9351H165.289V23.6608C165.289 27.5008 167.483 30.0037 171.392 30.0037C173.861 30.0037 175.232 29.078 176.432 27.4666H176.535V29.5237H181.026Z" fill="white"/>
  <path d="M184.042 29.5237H188.705V19.3066C188.705 16.9751 189.974 15.4666 191.86 15.4666C193.574 15.4666 194.568 16.4951 194.568 18.4837V29.5237H199.231V19.3066C199.231 16.9751 200.431 15.4666 202.385 15.4666C204.1 15.4666 205.094 16.4951 205.094 18.4837V29.5237H209.757V17.6951C209.757 13.8551 207.665 11.4551 203.962 11.4551C201.734 11.4551 199.882 12.6208 198.682 14.5408H198.614C197.757 12.6894 195.974 11.4551 193.745 11.4551C191.311 11.4551 189.597 12.6894 188.637 14.3008H188.534V11.9351H184.042V29.5237Z" fill="white"/>
  <path d="M0 29.5236H4.66285V5.00928H0V29.5236Z" fill="white"/>
  <path d="M16.0642 30.038C21.5156 30.038 25.2527 25.9923 25.2527 20.7466C25.2527 15.5008 21.5156 11.4551 16.0642 11.4551C10.6127 11.4551 6.87561 15.5008 6.87561 20.7466C6.87561 25.9923 10.6127 30.038 16.0642 30.038ZM16.0642 26.4723C13.1842 26.4723 11.607 24.1751 11.607 20.7466C11.607 17.318 13.1842 14.9866 16.0642 14.9866C18.9099 14.9866 20.5213 17.318 20.5213 20.7466C20.5213 24.1751 18.9099 26.4723 16.0642 26.4723Z" fill="white"/>
  <path d="M35.1689 35.5237C37.7746 35.5237 40.0375 34.9066 41.5117 33.5351C42.8146 32.3351 43.6032 30.6551 43.6032 28.1866V11.9351H39.1118V13.7866H39.0432C37.9803 12.3123 36.3689 11.4551 34.1746 11.4551C29.7175 11.4551 26.5632 14.8151 26.5632 20.0608C26.5632 25.3751 30.4032 28.4608 34.3118 28.4608C36.5403 28.4608 37.8775 27.5694 38.906 26.4037H39.0089V28.3237C39.0089 30.7237 37.7403 31.9923 35.1003 31.9923C32.9403 31.9923 31.946 31.1351 31.5689 30.038H26.9403C27.4203 33.4666 30.3689 35.5237 35.1689 35.5237ZM35.1003 24.7237C32.7003 24.7237 31.1232 22.9751 31.1232 19.9923C31.1232 17.0437 32.7003 15.1923 35.066 15.1923C37.8775 15.1923 39.2489 17.3866 39.2489 19.958C39.2489 22.5637 38.0489 24.7237 35.1003 24.7237Z" fill="white"/>
  <path d="M54.937 30.038C60.3884 30.038 64.1255 25.9923 64.1255 20.7466C64.1255 15.5008 60.3884 11.4551 54.937 11.4551C49.4856 11.4551 45.7484 15.5008 45.7484 20.7466C45.7484 25.9923 49.4856 30.038 54.937 30.038ZM54.937 26.4723C52.057 26.4723 50.4799 24.1751 50.4799 20.7466C50.4799 17.318 52.057 14.9866 54.937 14.9866C57.7827 14.9866 59.3942 17.318 59.3942 20.7466C59.3942 24.1751 57.7827 26.4723 54.937 26.4723Z" fill="white"/>
  <path d="M211.451 9.04771C211.451 8.25873 212.091 7.61914 212.88 7.61914H215.737C216.526 7.61914 217.166 8.25873 217.166 9.04771C217.166 9.83669 216.526 10.4763 215.737 10.4763H212.88C212.091 10.4763 211.451 9.83669 211.451 9.04771Z" fill="white"/>
  <path fill-rule="evenodd" clip-rule="evenodd" d="M92.4036 0C103.449 0 112.404 8.95431 112.404 20C112.404 31.0457 103.449 40 92.4036 40C81.3579 40 72.4036 31.0457 72.4036 20C72.4036 8.95431 81.3579 0 92.4036 0ZM91.6807 1.49659C89.399 1.81769 87.2264 3.65108 85.5399 6.7174C85.0507 7.60683 84.6093 8.58946 84.2247 9.65044C86.5179 9.07417 89.037 8.73442 91.6807 8.68187V1.49659ZM82.5343 10.1308C83.0127 8.62958 83.5978 7.2484 84.2731 6.02065C85.1091 4.50059 86.1013 3.18795 87.2192 2.17977C81.1403 3.94523 76.3488 8.73679 74.5833 14.8157C75.5915 13.6978 76.9041 12.7056 78.4242 11.8696C79.652 11.1943 81.0331 10.6091 82.5343 10.1308ZM82.054 11.8211C81.4777 14.1143 81.138 16.6334 81.0854 19.2771H73.9001C74.2212 16.9954 76.0546 14.8228 79.121 13.1364C80.0104 12.6472 80.993 12.2058 82.054 11.8211ZM82.5315 19.2771C82.5912 16.392 83.0066 13.6834 83.6938 11.2902C86.087 10.603 88.7956 10.1876 91.6807 10.1279V13.2508C90.6044 16.0062 88.4092 18.2012 85.6537 19.2771H82.5315ZM81.0854 20.7229H73.9001C74.2212 23.0046 76.0546 25.1771 79.121 26.8636C80.0104 27.3528 80.993 27.7942 82.054 28.1789C81.4777 25.8857 81.138 23.3666 81.0854 20.7229ZM83.6938 28.7098C83.0066 26.3166 82.5912 23.608 82.5315 20.7229H85.6537C88.4092 21.7988 90.6044 23.9938 91.6807 26.7492V29.8721C88.7956 29.8124 86.087 29.397 83.6938 28.7098ZM82.5343 29.8692C81.0331 29.3909 79.652 28.8057 78.4242 28.1304C76.9041 27.2944 75.5915 26.3022 74.5833 25.1843C76.3488 31.2632 81.1403 36.0548 87.2192 37.8202C86.1013 36.812 85.1091 35.4994 84.2731 33.9793C83.5978 32.7516 83.0127 31.3704 82.5343 29.8692ZM91.6807 38.5034C89.399 38.1823 87.2264 36.3489 85.5399 33.2826C85.0507 32.3932 84.6093 31.4105 84.2247 30.3496C86.5179 30.9258 89.037 31.2656 91.6807 31.3181V38.5034ZM97.5879 37.8202C98.7058 36.812 99.6979 35.4994 100.534 33.9793C101.209 32.7516 101.795 31.3704 102.273 29.8692C103.774 29.3909 105.155 28.8057 106.383 28.1304C107.903 27.2944 109.216 26.3022 110.224 25.1843C108.458 31.2632 103.667 36.0548 97.5879 37.8202ZM100.583 30.3496C100.198 31.4105 99.7559 32.3932 99.2669 33.2826C97.5807 36.3489 95.4081 38.1823 93.1264 38.5034V31.3181C95.7701 31.2656 98.2892 30.9258 100.583 30.3496ZM102.753 28.1789C103.814 27.7942 104.797 27.3528 105.686 26.8636C108.753 25.1772 110.586 23.0046 110.907 20.7229H103.722C103.669 23.3666 103.329 25.8857 102.753 28.1789ZM102.276 20.7229C102.216 23.608 101.801 26.3166 101.113 28.7098C98.7201 29.397 96.0115 29.8124 93.1264 29.8721V26.7515C94.2024 23.9951 96.3981 21.7991 99.1543 20.7229H102.276ZM103.722 19.2771H110.907C110.586 16.9954 108.753 14.8228 105.686 13.1364C104.797 12.6472 103.814 12.2058 102.753 11.8211C103.329 14.1143 103.669 16.6334 103.722 19.2771ZM101.113 11.2902C101.801 13.6834 102.216 16.392 102.276 19.2771H99.1544C96.3981 18.2009 94.2024 16.0049 93.1264 13.2485V10.1279C96.0115 10.1876 98.7201 10.603 101.113 11.2902ZM102.273 10.1308C103.774 10.6091 105.155 11.1943 106.383 11.8696C107.903 12.7056 109.216 13.6978 110.224 14.8157C108.458 8.73679 103.667 3.94523 97.5879 2.17977C98.7058 3.18795 99.6979 4.50059 100.534 6.02065C101.209 7.2484 101.795 8.62958 102.273 10.1308ZM93.1264 1.49659C95.4081 1.81769 97.5807 3.65108 99.2669 6.7174C99.7559 7.60684 100.198 8.58946 100.583 9.65044C98.2892 9.07417 95.7701 8.73442 93.1264 8.68187V1.49659Z" fill="white"/>
</svg>