<svg xmlns="http://www.w3.org/2000/svg" viewBox="0 0 1118 414.89"><defs><style>.cls-1,.cls-10,.cls-2,.cls-4,.cls-5,.cls-7{fill:none;}.cls-1{stroke:#010100;}.cls-1,.cls-10,.cls-2,.cls-3,.cls-4,.cls-5,.cls-6,.cls-7,.cls-8,.cls-9{stroke-miterlimit:10;}.cls-1,.cls-10,.cls-2,.cls-3,.cls-4,.cls-5,.cls-6,.cls-7,.cls-9{stroke-width:2px;}.cls-2{stroke:#050405;}.cls-3{fill:#f286f2;stroke:#020202;}.cls-4{stroke:#e41d6d;}.cls-5{stroke:#070307;}.cls-6{fill:#be11cc;stroke:#0c060c;}.cls-7,.cls-8,.cls-9{stroke:#ddff3d;}.cls-8,.cls-9{fill:#ddff3d;}.cls-10{stroke:#fff;}.cls-11{font-size:69.74px;}.cls-11,.cls-12,.cls-13,.cls-14,.cls-15{fill:#fffffe;font-family:AspergitBold, Aspergit;}.cls-12{font-size:38.38px;}.cls-13{font-size:56.31px;}.cls-14{font-size:38.02px;}.cls-15{font-size:51.34px;}</style></defs><g id="Layer_2" data-name="Layer 2"><g id="Layer_1-2" data-name="Layer 1"><line class="cls-1" x1="250.52" y1="75.95" x2="380" y2="75"/><line class="cls-2" x1="763" y1="76" x2="877" y2="76"/><line class="cls-3" y1="94" x2="65" y2="94"/><path class="cls-1" d="M251,118h24.05a9,9,0,0,1,8.95,9v219A11.06,11.06,0,0,0,295.06,357H634"/><line class="cls-4" x1="492" y1="75" x2="614" y2="75"/><path class="cls-5" d="M492,268h56.07A11.93,11.93,0,0,0,560,256.07v-150a9.09,9.09,0,0,1,9.1-9.1H614"/><line class="cls-6" x1="1024.45" y1="86.11" x2="1118" y2="86.11"/><path class="cls-4" d="M746.81,357.11l53.44-.09A10.77,10.77,0,0,0,811,346.25V108.81A12.62,12.62,0,0,1,823.81,96.2L875,97"/><path class="cls-7" d="M454.47,21H421.35a17.11,17.11,0,0,0-12.1,5L385.83,49.43a17.11,17.11,0,0,0-5,12.1V94.65a17.11,17.11,0,0,0,5,12.1l23.42,23.42a17.11,17.11,0,0,0,12.1,5h33.12a17.11,17.11,0,0,0,12.1-5L490,106.75a17.11,17.11,0,0,0,5-12.1V61.53a17.11,17.11,0,0,0-5-12.1L466.57,26A17.11,17.11,0,0,0,454.47,21Z"/><path class="cls-7" d="M443.69,47H432.13A17.14,17.14,0,0,0,420,52l-8.17,8.18a17.1,17.1,0,0,0-5,12.1V83.87a17.14,17.14,0,0,0,5,12.11l8.17,8.17a17.14,17.14,0,0,0,12.11,5h11.56a17.1,17.1,0,0,0,12.1-5L464,96a17.14,17.14,0,0,0,5-12.11V72.31a17.1,17.1,0,0,0-5-12.1L455.79,52A17.1,17.1,0,0,0,443.69,47Z"/><path class="cls-7" d="M713,9.93H665a17.11,17.11,0,0,0-12.1,5L619,48.85A17.11,17.11,0,0,0,614,61v48a17.09,17.09,0,0,0,5,12.1l33.91,33.91a17.11,17.11,0,0,0,12.1,5h48a17.11,17.11,0,0,0,12.1-5L759,121a17.09,17.09,0,0,0,5-12.1V61a17.11,17.11,0,0,0-5-12.1L725.08,14.94A17.11,17.11,0,0,0,713,9.93Z"/><path class="cls-7" d="M698.82,44.1H679.18a17.11,17.11,0,0,0-12.1,5L653.19,63a17.13,17.13,0,0,0-5,12.1V94.75a17.11,17.11,0,0,0,5,12.1l13.89,13.89a17.11,17.11,0,0,0,12.1,5h19.64a17.11,17.11,0,0,0,12.1-5l13.89-13.89a17.11,17.11,0,0,0,5-12.1V75.1a17.13,17.13,0,0,0-5-12.1L710.92,49.11A17.11,17.11,0,0,0,698.82,44.1Z"/><path class="cls-7" d="M454.28,214H423.72a17.11,17.11,0,0,0-12.1,5L390,240.62a17.11,17.11,0,0,0-5,12.1v30.56a17.11,17.11,0,0,0,5,12.1L411.62,317a17.11,17.11,0,0,0,12.1,5h30.56a17.11,17.11,0,0,0,12.1-5L488,295.38a17.11,17.11,0,0,0,5-12.1V252.72a17.11,17.11,0,0,0-5-12.1L466.38,219A17.11,17.11,0,0,0,454.28,214Z"/><path class="cls-7" d="M444.09,238.61H433.91a17.11,17.11,0,0,0-12.1,5l-7.19,7.19a17.11,17.11,0,0,0-5,12.1v10.18a17.11,17.11,0,0,0,5,12.1l7.19,7.19a17.11,17.11,0,0,0,12.1,5h10.18a17.11,17.11,0,0,0,12.1-5l7.19-7.19a17.11,17.11,0,0,0,5-12.1V262.91a17.11,17.11,0,0,0-5-12.1l-7.19-7.19A17.11,17.11,0,0,0,444.09,238.61Z"/><path class="cls-7" d="M188.29,1H125.84a17.11,17.11,0,0,0-12.1,5L69.58,50.17a17.13,17.13,0,0,0-5,12.1v62.46a17.13,17.13,0,0,0,5,12.1L113.74,181a17.11,17.11,0,0,0,12.1,5h62.45a17.11,17.11,0,0,0,12.1-5l44.16-44.16a17.12,17.12,0,0,0,5-12.1V62.27a17.12,17.12,0,0,0-5-12.1L200.39,6A17.11,17.11,0,0,0,188.29,1Z"/><path class="cls-7" d="M170.83,43.15H143.3a17.13,17.13,0,0,0-12.11,5L111.73,67.63a17.11,17.11,0,0,0-5,12.1v27.54a17.11,17.11,0,0,0,5,12.1l19.46,19.47a17.13,17.13,0,0,0,12.11,5h27.53a17.11,17.11,0,0,0,12.1-5l19.47-19.47a17.11,17.11,0,0,0,5-12.1V79.73a17.11,17.11,0,0,0-5-12.1L182.93,48.16A17.11,17.11,0,0,0,170.83,43.15Z"/><path class="cls-7" d="M706.81,300.89H674.19a17.13,17.13,0,0,0-12.11,5L639,329a17.13,17.13,0,0,0-5,12.11V373.7a17.13,17.13,0,0,0,5,12.11l23.07,23.07a17.13,17.13,0,0,0,12.11,5h32.62a17.13,17.13,0,0,0,12.11-5L742,385.81a17.13,17.13,0,0,0,5-12.11V341.08A17.13,17.13,0,0,0,742,329L718.92,305.9A17.13,17.13,0,0,0,706.81,300.89Z"/><path class="cls-7" d="M696.15,326.63h-11.3a17.11,17.11,0,0,0-12.1,5l-8,8a17.11,17.11,0,0,0-5,12.1V363a17.11,17.11,0,0,0,5,12.1l8,8a17.11,17.11,0,0,0,12.1,5h11.3a17.11,17.11,0,0,0,12.1-5l8-8a17.11,17.11,0,0,0,5-12.1v-11.3a17.11,17.11,0,0,0-5-12.1l-8-8A17.11,17.11,0,0,0,696.15,326.63Z"/><path class="cls-7" d="M973.88,11.44H926.57a17.11,17.11,0,0,0-12.1,5L881,49.9A17.13,17.13,0,0,0,876,62v47.31a17.11,17.11,0,0,0,5,12.1l33.46,33.46a17.11,17.11,0,0,0,12.1,5h47.31a17.13,17.13,0,0,0,12.11-5l33.45-33.46a17.11,17.11,0,0,0,5-12.1V62a17.13,17.13,0,0,0-5-12.11L986,16.45A17.13,17.13,0,0,0,973.88,11.44Z"/><path class="cls-7" d="M959.87,45.26H940.58a17.11,17.11,0,0,0-12.1,5L914.84,63.91a17.14,17.14,0,0,0-5,12.11V95.31a17.11,17.11,0,0,0,5,12.1l13.64,13.64a17.11,17.11,0,0,0,12.1,5h19.29a17.14,17.14,0,0,0,12.11-5l13.64-13.64a17.11,17.11,0,0,0,5-12.1V76a17.13,17.13,0,0,0-5-12.11L972,50.27A17.13,17.13,0,0,0,959.87,45.26Z"/><circle class="cls-8" cx="64.5" cy="94.5" r="5.5"/><circle class="cls-8" cx="380.5" cy="75.5" r="5.5"/><circle class="cls-8" cx="614.5" cy="75.5" r="5.5"/><circle class="cls-8" cx="876.5" cy="75.5" r="5.5"/><circle class="cls-8" cx="875.5" cy="97.5" r="5.5"/><circle class="cls-8" cx="614.5" cy="96.5" r="5.5"/><circle class="cls-8" cx="385.5" cy="268.5" r="5.5"/><circle class="cls-8" cx="634.5" cy="357.5" r="5.5"/><path class="cls-8" d="M256.58,74l-7.38-4.26a2.28,2.28,0,0,0-3.42,2v8.52a2.28,2.28,0,0,0,3.42,2l7.38-4.26A2.28,2.28,0,0,0,256.58,74Z"/><path class="cls-9" d="M256.54,94.88l-7.38-4.26a2.28,2.28,0,0,0-3.42,2v8.51a2.28,2.28,0,0,0,3.42,2l7.38-4.26A2.28,2.28,0,0,0,256.54,94.88Z"/><path class="cls-8" d="M256.54,115.88l-7.38-4.26a2.28,2.28,0,0,0-3.42,2v8.51a2.28,2.28,0,0,0,3.42,2l7.38-4.26A2.28,2.28,0,0,0,256.54,115.88Z"/><path class="cls-10" d="M251,97h51.64A12.37,12.37,0,0,1,315,109.36V255.64A12.37,12.37,0,0,0,327.36,268H381"/><path class="cls-9" d="M752.87,355.13l-7.38-4.26a2.28,2.28,0,0,0-3.42,2v8.52a2.28,2.28,0,0,0,3.42,2l7.38-4.25A2.29,2.29,0,0,0,752.87,355.13Z"/><path class="cls-8" d="M499.87,73.13l-7.38-4.26a2.28,2.28,0,0,0-3.42,2v8.52a2.28,2.28,0,0,0,3.42,2l7.38-4.25A2.29,2.29,0,0,0,499.87,73.13Z"/><path class="cls-8" d="M1029.87,84.13l-7.38-4.26a2.28,2.28,0,0,0-3.42,2v8.52a2.28,2.28,0,0,0,3.42,2l7.38-4.25A2.29,2.29,0,0,0,1029.87,84.13Z"/><path class="cls-8" d="M497.87,266.13l-7.38-4.26a2.28,2.28,0,0,0-3.42,2v8.52a2.28,2.28,0,0,0,3.42,2l7.38-4.25A2.29,2.29,0,0,0,497.87,266.13Z"/><path class="cls-9" d="M768.9,73.91l-7.38-4.25a2.28,2.28,0,0,0-3.42,2v8.52a2.28,2.28,0,0,0,3.42,2l7.38-4.26A2.29,2.29,0,0,0,768.9,73.91Z"/><text class="cls-11" transform="translate(136.78 120.18)">0</text><text class="cls-12" transform="translate(427.37 94.62)">0</text><text class="cls-13" transform="translate(673.37 106.86)">5</text><text class="cls-14" transform="translate(427.46 282.32)">3</text><text class="cls-14" transform="translate(681.34 370.26)">0</text><text class="cls-15" transform="translate(935.08 105.54)">3</text></g></g></svg>