<svg xmlns="http://www.w3.org/2000/svg" width="102" height="100" viewBox="0 0 102 100" fill="none">
  <path d="M50.9979 4.43018L20.6366 15.4146L4.48209 43.2275L10.0907 74.853L34.8433 95.4941H67.1524L91.905 74.853L97.517 43.2275L81.3624 15.4146L50.9979 4.43018Z" fill="#361281" stroke="#D5FF2F" stroke-width="2" stroke-miterlimit="10"/>
  <path d="M50.9978 27.8845L35.8056 33.3833L27.7201 47.2996L30.5277 63.1255L42.9156 73.4559H59.0834L71.4679 63.1255L74.2756 47.2996L66.1933 33.3833L50.9978 27.8845Z" fill="#361281" stroke="#D5FF2F" stroke-width="2" stroke-miterlimit="10"/>
  <path d="M50.9977 4.50562V28.2856" stroke="#D5FF2F" stroke-width="2" stroke-miterlimit="10"/>
  <path d="M20.481 15.5361L50.9977 28.2856" stroke="#D5FF2F" stroke-width="2" stroke-miterlimit="10"/>
  <path d="M81.5143 15.5361L50.9977 28.2856" stroke="#D5FF2F" stroke-width="2" stroke-miterlimit="10"/>
  <path d="M35.7395 33.4557L50.9978 4.50562" stroke="#D5FF2F" stroke-width="2" stroke-miterlimit="10"/>
  <path d="M66.256 33.4557L50.9977 4.50562" stroke="#D5FF2F" stroke-width="2" stroke-miterlimit="10"/>
  <path d="M81.5144 15.5361L66.2561 33.4557" stroke="#D5FF2F" stroke-width="2" stroke-miterlimit="10"/>
  <path d="M74.2325 47.2438L81.5144 15.5361" stroke="#D5FF2F" stroke-width="2" stroke-miterlimit="10"/>
  <path d="M35.7394 33.4559L20.481 15.533" stroke="#D5FF2F" stroke-width="2" stroke-miterlimit="10"/>
  <path d="M27.7663 47.2438L20.481 15.5361" stroke="#D5FF2F" stroke-width="2" stroke-miterlimit="10"/>
  <path d="M4.53165 43.106L27.7664 47.244" stroke="#D5FF2F" stroke-width="2" stroke-miterlimit="10"/>
  <path d="M30.5377 63.0959L10.0808 74.8167" stroke="#D5FF2F" stroke-width="2" stroke-miterlimit="10"/>
  <path d="M27.7665 47.2439L10.0808 74.8168" stroke="#D5FF2F" stroke-width="2" stroke-miterlimit="10"/>
  <path d="M4.53165 43.106L30.5376 63.0962" stroke="#D5FF2F" stroke-width="2" stroke-miterlimit="10"/>
  <path d="M43.0215 73.4363L34.7012 95.494" stroke="#D5FF2F" stroke-width="2" stroke-miterlimit="10"/>
  <path d="M67.2978 95.494L43.0214 73.4363" stroke="#D5FF2F" stroke-width="2" stroke-miterlimit="10"/>
  <path d="M30.5376 63.0959L34.7011 95.4939" stroke="#D5FF2F" stroke-width="2" stroke-miterlimit="10"/>
  <path d="M10.0808 74.8167L43.0215 73.4363" stroke="#D5FF2F" stroke-width="2" stroke-miterlimit="10"/>
  <path d="M58.9742 73.4363L91.9182 75.1586" stroke="#D5FF2F" stroke-width="2" stroke-miterlimit="10"/>
  <path d="M71.458 63.0959L67.2978 95.4939" stroke="#D5FF2F" stroke-width="2" stroke-miterlimit="10"/>
  <path d="M58.9742 73.4363L67.2978 95.494" stroke="#D5FF2F" stroke-width="2" stroke-miterlimit="10"/>
  <path d="M34.7012 95.494L58.9743 73.4363" stroke="#D5FF2F" stroke-width="2" stroke-miterlimit="10"/>
  <path d="M74.2325 47.244L97.4672 43.106" stroke="#D5FF2F" stroke-width="2" stroke-miterlimit="10"/>
  <path d="M91.9181 74.8168L74.2325 47.2439" stroke="#D5FF2F" stroke-width="2" stroke-miterlimit="10"/>
  <path d="M71.458 63.0959L91.9182 74.8167" stroke="#D5FF2F" stroke-width="2" stroke-miterlimit="10"/>
  <path d="M97.4672 43.106L70.7634 63.4413" stroke="#D5FF2F" stroke-width="2" stroke-miterlimit="10"/>
  <path d="M66.2561 33.4558L97.4672 43.1058" stroke="#D5FF2F" stroke-width="2" stroke-miterlimit="10"/>
  <path d="M17.0154 15.878C17.0154 15.196 17.2189 14.5292 17.6003 13.9622C17.9816 13.3951 18.5236 12.9532 19.1576 12.6923C19.7917 12.4315 20.4894 12.3634 21.1624 12.4967C21.8354 12.63 22.4535 12.9587 22.9385 13.4412C23.4235 13.9237 23.7537 14.5384 23.8872 15.2074C24.0207 15.8764 23.9515 16.5698 23.6884 17.1997C23.4253 17.8297 22.9802 18.3679 22.4093 18.7464C21.8384 19.1249 21.1674 19.3265 20.4811 19.3259C20.0257 19.3259 19.5748 19.2367 19.1541 19.0634C18.7334 18.89 18.3512 18.636 18.0293 18.3158C17.7074 17.9956 17.4522 17.6155 17.2783 17.1972C17.1043 16.7789 17.015 16.3306 17.0154 15.878Z" fill="#361281"/>
  <path d="M21.8074 19.0626C23.5774 18.3339 24.4179 16.317 23.6848 14.5578C22.9516 12.7985 20.9223 11.9631 19.1523 12.6918C17.3823 13.4205 16.5417 15.4374 17.2749 17.1966C18.0081 18.9559 20.0373 19.7913 21.8074 19.0626Z" fill="#361281" stroke="#D5FF2F" stroke-width="2" stroke-miterlimit="10"/>
  <path d="M1.06258 43.796C1.06259 43.1136 1.2663 42.4466 1.64792 41.8794C2.02954 41.3122 2.5719 40.8703 3.20636 40.6097C3.84082 40.349 4.53882 40.2813 5.21202 40.4151C5.88521 40.549 6.50331 40.8783 6.98806 41.3615C7.47281 41.8447 7.80241 42.4599 7.93514 43.1294C8.06787 43.7989 7.99778 44.4924 7.7337 45.1223C7.46962 45.7521 7.02342 46.2899 6.45164 46.6676C5.87987 47.0452 5.2082 47.2458 4.52168 47.2438C3.60164 47.2438 2.71929 46.8806 2.06872 46.234C1.41816 45.5874 1.05267 44.7104 1.05267 43.796" fill="#361281"/>
  <path d="M5.86002 46.981C7.63007 46.2523 8.47061 44.2355 7.73743 42.4762C7.00426 40.717 4.975 39.8815 3.20496 40.6102C1.43492 41.339 0.594355 43.3558 1.32753 45.1151C2.06071 46.8743 4.08998 47.7097 5.86002 46.981Z" fill="#361281" stroke="#D5FF2F" stroke-width="2" stroke-miterlimit="10"/>
  <path d="M6.95889 75.1588C6.95889 74.4767 7.16242 73.81 7.54375 73.2429C7.92508 72.6759 8.46709 72.2339 9.10116 71.9731C9.73523 71.7122 10.4329 71.6441 11.1059 71.7774C11.7789 71.9107 12.397 72.2394 12.882 72.722C13.3671 73.2045 13.6972 73.8191 13.8307 74.4882C13.9641 75.1572 13.895 75.8505 13.6319 76.4805C13.3688 77.1105 12.9237 77.6487 12.3528 78.0272C11.7819 78.4056 11.1108 78.6073 10.4246 78.6066C9.96919 78.6066 9.51826 78.5174 9.09756 78.3441C8.67687 78.1708 8.29469 77.9168 7.97282 77.5966C7.65096 77.2764 7.39575 76.8963 7.22177 76.478C7.0478 76.0597 6.95846 75.6114 6.95889 75.1588Z" fill="#361281"/>
  <path d="M11.7528 78.346C13.5228 77.6173 14.3634 75.6005 13.6302 73.8412C12.897 72.082 10.8678 71.2465 9.09773 71.9752C7.32769 72.7039 6.48715 74.7208 7.22032 76.4801C7.9535 78.2393 9.98276 79.0747 11.7528 78.346Z" fill="#361281" stroke="#D5FF2F" stroke-width="2" stroke-miterlimit="10"/>
  <path d="M31.2321 95.5104C31.2321 94.8284 31.4356 94.1618 31.8167 93.5948C32.1979 93.0278 32.7397 92.5859 33.3736 92.325C34.0075 92.064 34.705 91.9957 35.3779 92.1287C36.0508 92.2618 36.6689 92.5902 37.1541 93.0724C37.6392 93.5545 37.9696 94.1689 38.1035 94.8377C38.2373 95.5065 38.1686 96.1998 37.9061 96.8298C37.6435 97.4598 37.1989 97.9983 36.6284 98.3771C36.0579 98.756 35.3872 98.9582 34.7011 98.9582C33.7811 98.9582 32.8987 98.5949 32.2481 97.9483C31.5976 97.3017 31.2321 96.4248 31.2321 95.5104Z" fill="#361281"/>
  <path d="M36.0288 98.6805C37.7989 97.9518 38.6394 95.9349 37.9062 94.1757C37.1731 92.4164 35.1438 91.581 33.3738 92.3097C31.6037 93.0384 30.7632 95.0553 31.4964 96.8146C32.2295 98.5738 34.2588 99.4092 36.0288 98.6805Z" fill="#361281" stroke="#D5FF2F" stroke-width="2" stroke-miterlimit="10"/>
  <path d="M63.8288 95.5104C63.8288 94.8284 64.0323 94.1618 64.4135 93.5948C64.7947 93.0278 65.3364 92.5859 65.9703 92.325C66.6042 92.064 67.3017 91.9957 67.9746 92.1287C68.6475 92.2618 69.2657 92.5902 69.7508 93.0724C70.236 93.5545 70.5663 94.1689 70.7002 94.8377C70.834 95.5065 70.7653 96.1998 70.5028 96.8298C70.2402 97.4598 69.7956 97.9983 69.2251 98.3771C68.6547 98.756 67.9839 98.9582 67.2978 98.9582C66.3778 98.9582 65.4955 98.5949 64.8449 97.9483C64.1943 97.3017 63.8288 96.4248 63.8288 95.5104Z" fill="#361281"/>
  <path d="M68.6244 98.6803C70.3945 97.9516 71.235 95.9347 70.5019 94.1754C69.7687 92.4162 67.7394 91.5808 65.9694 92.3095C64.1993 93.0382 63.3588 95.0551 64.092 96.8143C64.8251 98.5736 66.8544 99.409 68.6244 98.6803Z" fill="#361281" stroke="#D5FF2F" stroke-width="2" stroke-miterlimit="10"/>
  <path d="M88.4493 75.1588C88.4493 74.4769 88.6528 73.8103 89.034 73.2433C89.4151 72.6763 89.9569 72.2343 90.5908 71.9734C91.2247 71.7124 91.9222 71.6442 92.5951 71.7772C93.268 71.9102 93.8861 72.2386 94.3713 72.7208C94.8564 73.203 95.1869 73.8173 95.3207 74.4861C95.4546 75.155 95.3858 75.8482 95.1233 76.4782C94.8607 77.1082 94.4161 77.6467 93.8456 78.0256C93.2751 78.4044 92.6045 78.6066 91.9183 78.6066C90.9983 78.6066 90.1159 78.2434 89.4654 77.5968C88.8148 76.9502 88.4493 76.0732 88.4493 75.1588Z" fill="#361281"/>
  <path d="M93.2437 78.3443C95.0138 77.6156 95.8543 75.5987 95.1211 73.8395C94.388 72.0803 92.3587 71.2448 90.5887 71.9735C88.8186 72.7022 87.9781 74.7191 88.7113 76.4784C89.4444 78.2376 91.4737 79.073 93.2437 78.3443Z" fill="#361281" stroke="#D5FF2F" stroke-width="2" stroke-miterlimit="10"/>
  <path d="M93.9983 43.796C93.9983 43.1141 94.2018 42.4475 94.5829 41.8805C94.9641 41.3135 95.5059 40.8716 96.1398 40.6106C96.7737 40.3496 97.4711 40.2814 98.1441 40.4144C98.817 40.5474 99.4351 40.8758 99.9203 41.358C100.405 41.8402 100.736 42.4545 100.87 43.1234C101.004 43.7922 100.935 44.4854 100.672 45.1154C100.41 45.7454 99.9651 46.2839 99.3946 46.6628C98.8241 47.0416 98.1534 47.2438 97.4673 47.2438C97.0117 47.2443 96.5603 47.1554 96.1393 46.9823C95.7182 46.8092 95.3356 46.5552 95.0134 46.235C94.6912 45.9147 94.4357 45.5344 94.2615 45.1159C94.0873 44.6974 93.9979 44.2489 93.9983 43.796Z" fill="#361281"/>
  <path d="M98.795 46.9825C100.565 46.2538 101.406 44.2369 100.672 42.4777C99.9392 40.7184 97.91 39.883 96.1399 40.6117C94.3699 41.3404 93.5293 43.3573 94.2625 45.1165C94.9957 46.8758 97.025 47.7112 98.795 46.9825Z" fill="#361281" stroke="#D5FF2F" stroke-width="2" stroke-miterlimit="10"/>
  <path d="M77.7016 15.878C77.7016 15.196 77.9051 14.5292 78.2864 13.9622C78.6678 13.3951 79.2097 12.9532 79.8438 12.6923C80.4779 12.4315 81.1755 12.3634 81.8486 12.4967C82.5216 12.63 83.1397 12.9587 83.6247 13.4412C84.1097 13.9237 84.4399 14.5384 84.5733 15.2074C84.7068 15.8764 84.6376 16.5698 84.3746 17.1997C84.1115 17.8297 83.6664 18.3679 83.0955 18.7464C82.5245 19.1249 81.8535 19.3265 81.1673 19.3259C80.7119 19.3259 80.2609 19.2367 79.8402 19.0634C79.4195 18.89 79.0373 18.636 78.7155 18.3158C78.3936 17.9956 78.1384 17.6155 77.9644 17.1972C77.7904 16.7789 77.7011 16.3306 77.7016 15.878Z" fill="#361281"/>
  <path d="M82.4939 19.0638C84.2639 18.3351 85.1045 16.3182 84.3713 14.559C83.6381 12.7997 81.6089 11.9643 79.8388 12.693C78.0688 13.4217 77.2282 15.4386 77.9614 17.1978C78.6946 18.9571 80.7238 19.7925 82.4939 19.0638Z" fill="#361281" stroke="#D5FF2F" stroke-width="2" stroke-miterlimit="10"/>
  <path d="M47.5321 4.5057C47.5321 3.82365 47.7357 3.15691 48.117 2.58984C48.4983 2.02278 49.0403 1.58086 49.6744 1.32C50.3084 1.05914 51.0061 0.991051 51.6791 1.12435C52.3521 1.25766 52.9702 1.58636 53.4552 2.06888C53.9403 2.55139 54.2704 3.16605 54.4039 3.83508C54.5373 4.50411 54.4682 5.19746 54.2051 5.82742C53.9421 6.45737 53.4969 6.99563 52.926 7.37409C52.3551 7.75255 51.6841 7.9542 50.9978 7.95355C50.0784 7.95268 49.1968 7.58904 48.547 6.94254C47.8971 6.29604 47.5321 5.41956 47.5321 4.5057Z" fill="#361281"/>
  <path d="M52.3257 7.69027C54.0957 6.96157 54.9363 4.94469 54.2031 3.18544C53.4699 1.4262 51.4407 0.59078 49.6706 1.31948C47.9006 2.04819 47.06 4.06506 47.7932 5.82431C48.5264 7.58355 50.5556 8.41898 52.3257 7.69027Z" fill="#361281" stroke="#D5FF2F" stroke-width="2" stroke-miterlimit="10"/>
  <path d="M32.2738 33.8009C32.2738 33.1188 32.4774 32.4521 32.8587 31.885C33.24 31.3179 33.782 30.876 34.4161 30.6152C35.0501 30.3543 35.7478 30.2862 36.4208 30.4195C37.0938 30.5528 37.7119 30.8815 38.1969 31.364C38.682 31.8466 39.0121 32.4612 39.1456 33.1302C39.2791 33.7993 39.2099 34.4926 38.9468 35.1226C38.6838 35.7525 38.2386 36.2908 37.6677 36.6693C37.0968 37.0477 36.4258 37.2494 35.7395 37.2487C35.2841 37.2487 34.8332 37.1595 34.4125 36.9862C33.9918 36.8129 33.6096 36.5589 33.2877 36.2387C32.9659 35.9185 32.7106 35.5383 32.5367 35.1201C32.3627 34.7018 32.2734 34.2535 32.2738 33.8009Z" fill="#361281"/>
  <path d="M37.0676 36.9862C38.8377 36.2575 39.6782 34.2406 38.945 32.4813C38.2119 30.7221 36.1826 29.8867 34.4126 30.6154C32.6425 31.3441 31.802 33.361 32.5351 35.1202C33.2683 36.8795 35.2976 37.7149 37.0676 36.9862Z" fill="#361281" stroke="#D5FF2F" stroke-width="2" stroke-miterlimit="10"/>
  <path d="M47.5321 28.2858C47.5348 27.6043 47.7405 26.9388 48.1234 26.3735C48.5063 25.8082 49.0492 25.3683 49.6835 25.1095C50.3178 24.8506 51.0151 24.7844 51.6872 24.9192C52.3593 25.054 52.9762 25.3837 53.4599 25.8667C53.9436 26.3498 54.2724 26.9644 54.4048 27.6331C54.5372 28.3018 54.4673 28.9945 54.2038 29.6237C53.9404 30.2528 53.4952 30.7903 52.9246 31.1682C52.354 31.5461 51.6835 31.7474 50.9978 31.7468C50.5424 31.7468 50.0915 31.6576 49.6708 31.4843C49.2501 31.3109 48.8679 31.0569 48.546 30.7367C48.2242 30.4165 47.9689 30.0364 47.795 29.6181C47.621 29.1998 47.5317 28.7515 47.5321 28.2989" fill="#361281"/>
  <path d="M52.3247 31.471C54.0947 30.7423 54.9353 28.7255 54.2021 26.9662C53.4689 25.207 51.4397 24.3715 49.6696 25.1002C47.8996 25.8289 47.059 27.8458 47.7922 29.6051C48.5254 31.3643 50.5547 32.1997 52.3247 31.471Z" fill="#361281" stroke="#D5FF2F" stroke-width="2" stroke-miterlimit="10"/>
  <path d="M63.1343 33.8009C63.1343 33.119 63.3378 32.4524 63.7189 31.8854C64.1001 31.3184 64.6419 30.8764 65.2758 30.6155C65.9097 30.3545 66.6071 30.2862 67.2801 30.4193C67.953 30.5523 68.5711 30.8807 69.0563 31.3629C69.5414 31.8451 69.8718 32.4594 70.0056 33.1282C70.1395 33.7971 70.0708 34.4903 69.8082 35.1203C69.5457 35.7503 69.1011 36.2888 68.5306 36.6677C67.9601 37.0465 67.2894 37.2487 66.6033 37.2487C65.6832 37.2487 64.8009 36.8855 64.1503 36.2389C63.4998 35.5923 63.1343 34.7153 63.1343 33.8009Z" fill="#361281"/>
  <path d="M67.9301 36.9876C69.7002 36.2589 70.5407 34.2421 69.8075 32.4828C69.0744 30.7236 67.0451 29.8881 65.2751 30.6168C63.505 31.3455 62.6645 33.3624 63.3977 35.1217C64.1308 36.8809 66.1601 37.7163 67.9301 36.9876Z" fill="#361281" stroke="#D5FF2F" stroke-width="2" stroke-miterlimit="10"/>
  <path d="M70.7634 47.9308C70.7634 47.2488 70.9669 46.5822 71.348 46.0152C71.7292 45.4482 72.271 45.0063 72.9049 44.7454C73.5388 44.4844 74.2363 44.4161 74.9092 44.5492C75.5821 44.6822 76.2002 45.0106 76.6854 45.4928C77.1705 45.975 77.5009 46.5893 77.6347 47.2581C77.7686 47.9269 77.6999 48.6202 77.4373 49.2502C77.1748 49.8802 76.7302 50.4187 76.1597 50.7975C75.5892 51.1764 74.9185 51.3786 74.2324 51.3786C73.3124 51.3786 72.43 51.0154 71.7795 50.3688C71.1289 49.7222 70.7634 48.8452 70.7634 47.9308Z" fill="#361281"/>
  <path d="M75.5611 51.1173C77.3312 50.3886 78.1717 48.3717 77.4385 46.6124C76.7054 44.8532 74.6761 44.0178 72.9061 44.7465C71.136 45.4752 70.2955 47.4921 71.0286 49.2513C71.7618 51.0106 73.7911 51.846 75.5611 51.1173Z" fill="#361281" stroke="#D5FF2F" stroke-width="2" stroke-miterlimit="10"/>
  <path d="M67.2978 63.4413C67.2978 62.7592 67.5014 62.0925 67.8827 61.5254C68.264 60.9583 68.806 60.5164 69.4401 60.2555C70.0741 59.9947 70.7718 59.9266 71.4448 60.0599C72.1178 60.1932 72.7359 60.5219 73.2209 61.0044C73.706 61.4869 74.0361 62.1016 74.1696 62.7706C74.303 63.4397 74.2339 64.133 73.9708 64.763C73.7078 65.3929 73.2626 65.9312 72.6917 66.3096C72.1208 66.6881 71.4498 66.8898 70.7635 66.8891C70.3081 66.8891 69.8572 66.7999 69.4365 66.6266C69.0158 66.4533 68.6336 66.1993 68.3117 65.8791C67.9899 65.5588 67.7346 65.1787 67.5607 64.7604C67.3867 64.3422 67.2974 63.8939 67.2978 63.4413Z" fill="#361281"/>
  <path d="M72.0911 66.6282C73.8612 65.8995 74.7017 63.8827 73.9685 62.1234C73.2354 60.3642 71.2061 59.5288 69.4361 60.2575C67.666 60.9862 66.8254 63.0031 67.5586 64.7623C68.2918 66.5215 70.3211 67.357 72.0911 66.6282Z" fill="#361281" stroke="#D5FF2F" stroke-width="2" stroke-miterlimit="10"/>
  <path d="M56.1997 73.4364C56.1997 72.7545 56.4031 72.0878 56.7843 71.5208C57.1655 70.9539 57.7073 70.5119 58.3411 70.251C58.975 69.99 59.6725 69.9217 60.3455 70.0548C61.0184 70.1878 61.6365 70.5162 62.1216 70.9984C62.6068 71.4806 62.9372 72.0949 63.071 72.7637C63.2049 73.4325 63.1362 74.1258 62.8736 74.7558C62.6111 75.3858 62.1664 75.9243 61.5959 76.3031C61.0255 76.682 60.3548 76.8842 59.6687 76.8842C58.7486 76.8842 57.8663 76.521 57.2157 75.8744C56.5651 75.2278 56.1997 74.3508 56.1997 73.4364Z" fill="#361281"/>
  <path d="M60.9969 76.6214C62.7669 75.8927 63.6075 73.8758 62.8743 72.1166C62.1411 70.3574 60.1119 69.5219 58.3418 70.2506C56.5718 70.9793 55.7312 72.9962 56.4644 74.7555C57.1976 76.5147 59.2268 77.3501 60.9969 76.6214Z" fill="#361281" stroke="#D5FF2F" stroke-width="2" stroke-miterlimit="10"/>
  <path d="M39.2084 73.4364C39.2084 72.7545 39.4119 72.0878 39.793 71.5208C40.1742 70.9539 40.716 70.5119 41.3499 70.251C41.9838 69.99 42.6813 69.9217 43.3542 70.0548C44.0271 70.1878 44.6453 70.5162 45.1304 70.9984C45.6156 71.4806 45.9459 72.0949 46.0798 72.7637C46.2137 73.4325 46.145 74.1258 45.8824 74.7558C45.6198 75.3858 45.1752 75.9243 44.6047 76.3031C44.0342 76.682 43.3635 76.8842 42.6774 76.8842C42.2218 76.8846 41.7705 76.7958 41.3494 76.6226C40.9283 76.4495 40.5457 76.1956 40.2235 75.8753C39.9013 75.5551 39.6458 75.1748 39.4716 74.7563C39.2974 74.3378 39.208 73.8893 39.2084 73.4364Z" fill="#361281"/>
  <path d="M44.006 76.6222C45.776 75.8934 46.6166 73.8766 45.8834 72.1173C45.1502 70.3581 43.121 69.5227 41.3509 70.2514C39.5809 70.9801 38.7404 72.9969 39.4735 74.7562C40.2067 76.5154 42.236 77.3509 44.006 76.6222Z" fill="#361281" stroke="#D5FF2F" stroke-width="2" stroke-miterlimit="10"/>
  <path d="M27.7665 63.4413C27.7665 62.7592 27.97 62.0925 28.3513 61.5254C28.7327 60.9583 29.2746 60.5164 29.9087 60.2555C30.5428 59.9947 31.2405 59.9266 31.9135 60.0599C32.5865 60.1932 33.2046 60.5219 33.6896 61.0044C34.1746 61.4869 34.5048 62.1016 34.6382 62.7706C34.7717 63.4397 34.7025 64.133 34.4395 64.763C34.1764 65.3929 33.7313 65.9312 33.1604 66.3096C32.5895 66.6881 31.9184 66.8898 31.2322 66.8891C30.7768 66.8891 30.3258 66.7999 29.9052 66.6266C29.4845 66.4533 29.1022 66.1993 28.7804 65.8791C28.4585 65.5588 28.2033 65.1787 28.0293 64.7604C27.8553 64.3422 27.766 63.8939 27.7665 63.4413Z" fill="#361281"/>
  <path d="M32.5597 66.627C34.3297 65.8983 35.1702 63.8815 34.4371 62.1222C33.7039 60.363 31.6746 59.5275 29.9046 60.2563C28.1345 60.985 27.294 63.0018 28.0272 64.7611C28.7604 66.5203 30.7896 67.3557 32.5597 66.627Z" fill="#361281" stroke="#D5FF2F" stroke-width="2" stroke-miterlimit="10"/>
  <path d="M24.2973 47.9308C24.2973 47.2487 24.5008 46.582 24.8821 46.0149C25.2635 45.4478 25.8054 45.0059 26.4395 44.745C27.0736 44.4842 27.7713 44.4161 28.4443 44.5494C29.1173 44.6827 29.7354 45.0114 30.2204 45.4939C30.7054 45.9764 31.0356 46.5911 31.169 47.2601C31.3025 47.9292 31.2333 48.6225 30.9703 49.2525C30.7072 49.8824 30.262 50.4207 29.6911 50.7991C29.1202 51.1776 28.4492 51.3793 27.763 51.3786C27.3076 51.3786 26.8566 51.2894 26.4359 51.1161C26.0152 50.9428 25.633 50.6888 25.3112 50.3686C24.9893 50.0484 24.7341 49.6682 24.5601 49.2499C24.3861 48.8317 24.2968 48.3834 24.2973 47.9308Z" fill="#361281"/>
  <path d="M29.0904 51.1187C30.8605 50.39 31.701 48.3732 30.9679 46.6139C30.2347 44.8547 28.2054 44.0192 26.4354 44.748C24.6653 45.4767 23.8248 47.4935 24.558 49.2528C25.2911 51.012 27.3204 51.8474 29.0904 51.1187Z" fill="#361281" stroke="#D5FF2F" stroke-width="2" stroke-miterlimit="10"/>
</svg>