<svg xmlns="http://www.w3.org/2000/svg" width="116" height="102" viewBox="0 0 116 102" fill="none">
  <path d="M84.8003 4.4248H31.2032L4.3996 51.0003L31.2032 97.5758H84.8003L111.6 51.0003L84.8003 4.4248Z" fill="#361281" stroke="#D5FF2F" stroke-width="1.5" stroke-miterlimit="10"/>
  <path d="M41.5485 28.5786L30.3533 48.0376" stroke="#D5FF2F" stroke-width="1.5" stroke-miterlimit="10"/>
  <path d="M69.4751 25.4932H46.8526" stroke="#D5FF2F" stroke-width="1.5" stroke-miterlimit="10"/>
  <path d="M30.3533 53.9617L43.3233 76.5063H72.6766L87.3532 50.9994L74.6084 28.8452" fill="#361281"/>
  <path d="M30.3533 53.9617L43.3233 76.5063H72.6766L87.3532 50.9994L74.6084 28.8452" stroke="#D5FF2F" stroke-width="1.5" stroke-miterlimit="10"/>
  <path d="M43.3233 25.6578L31.0359 4.4248" stroke="#D5FF2F" stroke-width="1.5" stroke-miterlimit="10"/>
  <path d="M84.9639 4.4248L43.3232 25.6578" stroke="#D5FF2F" stroke-width="1.5" stroke-miterlimit="10"/>
  <path d="M74.5536 22.4146L84.9638 4.4248" stroke="#D5FF2F" stroke-width="1.5" stroke-miterlimit="10"/>
  <path d="M72.6768 25.6572L74.554 22.4141" stroke="#D5FF2F" stroke-width="1.5" stroke-miterlimit="10"/>
  <path d="M31.0359 4.4248L73.0179 25.6578" stroke="#D5FF2F" stroke-width="1.5" stroke-miterlimit="10"/>
  <path d="M4.41296 50.9998L43.3231 25.6572" stroke="#D5FF2F" stroke-width="1.5" stroke-miterlimit="10"/>
  <path d="M28.6465 51H4.41296" stroke="#D5FF2F" stroke-width="1.5" stroke-miterlimit="10"/>
  <path d="M31.036 4.4248L28.6468 51.0003" stroke="#D5FF2F" stroke-width="1.5" stroke-miterlimit="10"/>
  <path d="M43.3231 76.3425L4.41296 51" stroke="#D5FF2F" stroke-width="1.5" stroke-miterlimit="10"/>
  <path d="M31.0359 97.5757L43.3233 76.3428" stroke="#D5FF2F" stroke-width="1.5" stroke-miterlimit="10"/>
  <path d="M84.9639 97.5757L43.3232 76.3428" stroke="#D5FF2F" stroke-width="1.5" stroke-miterlimit="10"/>
  <path d="M72.6766 76.3428L31.0359 97.5757" stroke="#D5FF2F" stroke-width="1.5" stroke-miterlimit="10"/>
  <path d="M84.9642 97.5757L72.6768 76.3428" stroke="#D5FF2F" stroke-width="1.5" stroke-miterlimit="10"/>
  <path d="M111.587 51L72.6768 76.3425" stroke="#D5FF2F" stroke-width="1.5" stroke-miterlimit="10"/>
  <path d="M87.3533 51H111.587" stroke="#D5FF2F" stroke-width="1.5" stroke-miterlimit="10"/>
  <path d="M75.8818 27.7432L111.587 51.0001" stroke="#D5FF2F" stroke-width="1.5" stroke-miterlimit="10"/>
  <path d="M72.6768 25.6572L75.8817 27.7428" stroke="#D5FF2F" stroke-width="1.5" stroke-miterlimit="10"/>
  <path d="M87.3533 51.0003L84.9641 4.4248" stroke="#D5FF2F" stroke-width="1.5" stroke-miterlimit="10"/>
  <path d="M84.9641 97.5755L87.3533 51" stroke="#D5FF2F" stroke-width="1.5" stroke-miterlimit="10"/>
  <path d="M28.6468 51L31.036 97.5755" stroke="#D5FF2F" stroke-width="1.5" stroke-miterlimit="10"/>
  <path d="M27.6226 4.42467C27.6226 3.74734 27.8228 3.08521 28.1978 2.52203C28.5729 1.95884 29.1059 1.51989 29.7296 1.26069C30.3533 1.00148 31.0396 0.933664 31.7017 1.06581C32.3638 1.19795 32.9719 1.52412 33.4493 2.00306C33.9266 2.48201 34.2517 3.09223 34.3834 3.75655C34.5151 4.42087 34.4475 5.10946 34.1891 5.73523C33.9308 6.36101 33.4933 6.89587 32.932 7.27218C32.3708 7.64849 31.7109 7.84934 31.0358 7.84934C30.1306 7.84934 29.2624 7.48853 28.6223 6.84628C27.9822 6.20403 27.6226 5.33295 27.6226 4.42467Z" fill="#361281"/>
  <path d="M31.0358 7.84934C32.9208 7.84934 34.449 6.31606 34.449 4.42467C34.449 2.53328 32.9208 1 31.0358 1C29.1507 1 27.6226 2.53328 27.6226 4.42467C27.6226 6.31606 29.1507 7.84934 31.0358 7.84934Z" fill="#361281" stroke="#D5FF2F" stroke-width="1.5" stroke-miterlimit="10"/>
  <path d="M39.9102 25.6576C39.9102 24.9802 40.1103 24.3181 40.4854 23.7549C40.8604 23.1918 41.3935 22.7528 42.0172 22.4936C42.6408 22.2344 43.3271 22.1666 43.9892 22.2987C44.6513 22.4309 45.2595 22.757 45.7368 23.236C46.2141 23.7149 46.5392 24.3251 46.6709 24.9895C46.8026 25.6538 46.735 26.3424 46.4767 26.9681C46.2184 27.5939 45.7809 28.1288 45.2196 28.5051C44.6583 28.8814 43.9984 29.0823 43.3233 29.0823C42.4181 29.0823 41.5499 28.7214 40.9098 28.0792C40.2698 27.4369 39.9102 26.5659 39.9102 25.6576Z" fill="#361281"/>
  <path d="M43.3233 29.0822C45.2084 29.0822 46.7365 27.549 46.7365 25.6576C46.7365 23.7662 45.2084 22.2329 43.3233 22.2329C41.4383 22.2329 39.9102 23.7662 39.9102 25.6576C39.9102 27.549 41.4383 29.0822 43.3233 29.0822Z" fill="#361281" stroke="#D5FF2F" stroke-width="1.5" stroke-miterlimit="10"/>
  <path d="M69.6047 25.6576C69.6047 24.9802 69.8049 24.3181 70.18 23.7549C70.555 23.1918 71.0881 22.7528 71.7117 22.4936C72.3354 22.2344 73.0217 22.1666 73.6838 22.2987C74.3459 22.4309 74.954 22.757 75.4314 23.236C75.9087 23.7149 76.2338 24.3251 76.3655 24.9895C76.4972 25.6538 76.4296 26.3424 76.1713 26.9681C75.9129 27.5939 75.4755 28.1288 74.9142 28.5051C74.3529 28.8814 73.693 29.0823 73.0179 29.0823C72.1127 29.0823 71.2445 28.7214 70.6044 28.0792C69.9643 27.4369 69.6047 26.5659 69.6047 25.6576Z" fill="#361281"/>
  <path d="M73.0179 29.0822C74.9029 29.0822 76.4311 27.549 76.4311 25.6576C76.4311 23.7662 74.9029 22.2329 73.0179 22.2329C71.1329 22.2329 69.6047 23.7662 69.6047 25.6576C69.6047 27.549 71.1329 29.0822 73.0179 29.0822Z" fill="#361281" stroke="#D5FF2F" stroke-width="1.5" stroke-miterlimit="10"/>
  <path d="M39.9102 76.3426C39.9102 75.6653 40.1103 75.0032 40.4854 74.44C40.8604 73.8768 41.3935 73.4379 42.0172 73.1787C42.6408 72.9195 43.3271 72.8516 43.9892 72.9838C44.6513 73.1159 45.2595 73.4421 45.7368 73.921C46.2141 74.4 46.5392 75.0102 46.6709 75.6745C46.8026 76.3388 46.735 77.0274 46.4767 77.6532C46.2184 78.279 45.7809 78.8138 45.2196 79.1901C44.6583 79.5665 43.9984 79.7673 43.3233 79.7673C42.4181 79.7673 41.5499 79.4065 40.9098 78.7642C40.2698 78.122 39.9102 77.2509 39.9102 76.3426Z" fill="#361281"/>
  <path d="M43.3233 79.7673C45.2084 79.7673 46.7365 78.234 46.7365 76.3426C46.7365 74.4512 45.2084 72.918 43.3233 72.918C41.4383 72.918 39.9102 74.4512 39.9102 76.3426C39.9102 78.234 41.4383 79.7673 43.3233 79.7673Z" fill="#361281" stroke="#D5FF2F" stroke-width="1.5" stroke-miterlimit="10"/>
  <path d="M69.6047 76.3426C69.6047 75.6653 69.8049 75.0032 70.18 74.44C70.555 73.8768 71.0881 73.4379 71.7117 73.1787C72.3354 72.9195 73.0217 72.8516 73.6838 72.9838C74.3459 73.1159 74.954 73.4421 75.4314 73.921C75.9087 74.4 76.2338 75.0102 76.3655 75.6745C76.4972 76.3388 76.4296 77.0274 76.1713 77.6532C75.9129 78.279 75.4755 78.8138 74.9142 79.1901C74.3529 79.5665 73.693 79.7673 73.0179 79.7673C72.1127 79.7673 71.2445 79.4065 70.6044 78.7642C69.9643 78.122 69.6047 77.2509 69.6047 76.3426Z" fill="#361281"/>
  <path d="M73.0179 79.7673C74.9029 79.7673 76.4311 78.234 76.4311 76.3426C76.4311 74.4512 74.9029 72.918 73.0179 72.918C71.1329 72.918 69.6047 74.4512 69.6047 76.3426C69.6047 78.234 71.1329 79.7673 73.0179 79.7673Z" fill="#361281" stroke="#D5FF2F" stroke-width="1.5" stroke-miterlimit="10"/>
  <path d="M81.2097 4.42467C81.2097 3.74734 81.4098 3.08521 81.7849 2.52203C82.1599 1.95884 82.693 1.51989 83.3167 1.26069C83.9403 1.00148 84.6266 0.933664 85.2887 1.06581C85.9508 1.19795 86.559 1.52412 87.0363 2.00306C87.5136 2.48201 87.8387 3.09223 87.9704 3.75655C88.1021 4.42087 88.0345 5.10946 87.7762 5.73523C87.5179 6.36101 87.0804 6.89587 86.5191 7.27218C85.9578 7.64849 85.2979 7.84934 84.6228 7.84934C83.7176 7.84934 82.8494 7.48853 82.2093 6.84628C81.5693 6.20403 81.2097 5.33295 81.2097 4.42467Z" fill="#361281"/>
  <path d="M84.6228 7.84934C86.5079 7.84934 88.036 6.31606 88.036 4.42467C88.036 2.53328 86.5079 1 84.6228 1C82.7378 1 81.2097 2.53328 81.2097 4.42467C81.2097 6.31606 82.7378 7.84934 84.6228 7.84934Z" fill="#361281" stroke="#D5FF2F" stroke-width="1.5" stroke-miterlimit="10"/>
  <path d="M27.6226 97.5751C27.6226 96.8977 27.8228 96.2356 28.1978 95.6724C28.5729 95.1092 29.1059 94.6703 29.7296 94.4111C30.3533 94.1519 31.0396 94.0841 31.7017 94.2162C32.3638 94.3483 32.9719 94.6745 33.4493 95.1535C33.9266 95.6324 34.2517 96.2426 34.3834 96.9069C34.5151 97.5713 34.4475 98.2599 34.1891 98.8856C33.9308 99.5114 33.4933 100.046 32.932 100.423C32.3708 100.799 31.7109 101 31.0358 101C30.1306 101 29.2624 100.639 28.6223 99.9967C27.9822 99.3544 27.6226 98.4833 27.6226 97.5751Z" fill="#361281"/>
  <path d="M31.0358 101C32.9208 101 34.449 99.4665 34.449 97.5751C34.449 95.6837 32.9208 94.1504 31.0358 94.1504C29.1507 94.1504 27.6226 95.6837 27.6226 97.5751C27.6226 99.4665 29.1507 101 31.0358 101Z" fill="#361281" stroke="#D5FF2F" stroke-width="1.5" stroke-miterlimit="10"/>
  <path d="M1 51.0004C1 50.323 1.20018 49.6609 1.57522 49.0977C1.95027 48.5345 2.48333 48.0956 3.107 47.8364C3.73068 47.5772 4.41696 47.5093 5.07905 47.6415C5.74114 47.7736 6.3493 48.0998 6.82664 48.5787C7.30399 49.0577 7.62906 49.6679 7.76076 50.3322C7.89245 50.9966 7.82486 51.6851 7.56653 52.3109C7.30819 52.9367 6.87072 53.4716 6.30942 53.8479C5.74813 54.2242 5.08823 54.425 4.41317 54.425C3.50794 54.425 2.63979 54.0642 1.99969 53.422C1.3596 52.7797 1 51.9086 1 51.0004Z" fill="#361281"/>
  <path d="M4.41317 54.425C6.29821 54.425 7.82634 52.8917 7.82634 51.0004C7.82634 49.109 6.29821 47.5757 4.41317 47.5757C2.52813 47.5757 1 49.109 1 51.0004C1 52.8917 2.52813 54.425 4.41317 54.425Z" fill="#361281" stroke="#D5FF2F" stroke-width="1.5" stroke-miterlimit="10"/>
  <path d="M25.2336 51.0004C25.2336 50.323 25.4338 49.6609 25.8088 49.0977C26.1838 48.5345 26.7169 48.0956 27.3406 47.8364C27.9643 47.5772 28.6505 47.5093 29.3126 47.6415C29.9747 47.7736 30.5829 48.0998 31.0602 48.5787C31.5376 49.0577 31.8626 49.6679 31.9943 50.3322C32.126 50.9966 32.0584 51.6851 31.8001 52.3109C31.5418 52.9367 31.1043 53.4716 30.543 53.8479C29.9817 54.2242 29.3218 54.425 28.6468 54.425C27.7415 54.425 26.8734 54.0642 26.2333 53.422C25.5932 52.7797 25.2336 51.9086 25.2336 51.0004Z" fill="#361281"/>
  <path d="M28.6468 54.425C30.5318 54.425 32.0599 52.8917 32.0599 51.0004C32.0599 49.109 30.5318 47.5757 28.6468 47.5757C26.7617 47.5757 25.2336 49.109 25.2336 51.0004C25.2336 52.8917 26.7617 54.425 28.6468 54.425Z" fill="#361281" stroke="#D5FF2F" stroke-width="1.5" stroke-miterlimit="10"/>
  <path d="M81.2097 97.5751C81.2097 96.8977 81.4098 96.2356 81.7849 95.6724C82.1599 95.1092 82.693 94.6703 83.3167 94.4111C83.9403 94.1519 84.6266 94.0841 85.2887 94.2162C85.9508 94.3483 86.559 94.6745 87.0363 95.1535C87.5136 95.6324 87.8387 96.2426 87.9704 96.9069C88.1021 97.5713 88.0345 98.2599 87.7762 98.8856C87.5179 99.5114 87.0804 100.046 86.5191 100.423C85.9578 100.799 85.2979 101 84.6228 101C83.7176 101 82.8494 100.639 82.2093 99.9967C81.5693 99.3544 81.2097 98.4833 81.2097 97.5751Z" fill="#361281"/>
  <path d="M84.6228 101C86.5079 101 88.036 99.4665 88.036 97.5751C88.036 95.6837 86.5079 94.1504 84.6228 94.1504C82.7378 94.1504 81.2097 95.6837 81.2097 97.5751C81.2097 99.4665 82.7378 101 84.6228 101Z" fill="#361281" stroke="#D5FF2F" stroke-width="1.5" stroke-miterlimit="10"/>
  <path d="M108.174 51.0004C108.174 50.323 108.374 49.6609 108.749 49.0977C109.124 48.5345 109.657 48.0956 110.281 47.8364C110.904 47.5772 111.591 47.5093 112.253 47.6415C112.915 47.7736 113.523 48.0998 114 48.5787C114.478 49.0577 114.803 49.6679 114.934 50.3322C115.066 50.9966 114.999 51.6851 114.74 52.3109C114.482 52.9367 114.044 53.4716 113.483 53.8479C112.922 54.2242 112.262 54.425 111.587 54.425C110.682 54.425 109.813 54.0642 109.173 53.422C108.533 52.7797 108.174 51.9086 108.174 51.0004Z" fill="#361281"/>
  <path d="M111.587 54.425C113.472 54.425 115 52.8917 115 51.0004C115 49.109 113.472 47.5757 111.587 47.5757C109.702 47.5757 108.174 49.109 108.174 51.0004C108.174 52.8917 109.702 54.425 111.587 54.425Z" fill="#361281" stroke="#D5FF2F" stroke-width="1.5" stroke-miterlimit="10"/>
  <path d="M83.9401 51.0004C83.9401 50.323 84.1403 49.6609 84.5153 49.0977C84.8904 48.5345 85.4235 48.0956 86.0471 47.8364C86.6708 47.5772 87.3571 47.5093 88.0192 47.6415C88.6813 47.7736 89.2894 48.0998 89.7668 48.5787C90.2441 49.0577 90.5692 49.6679 90.7009 50.3322C90.8326 50.9966 90.765 51.6851 90.5067 52.3109C90.2483 52.9367 89.8108 53.4716 89.2495 53.8479C88.6883 54.2242 88.0284 54.425 87.3533 54.425C86.4481 54.425 85.5799 54.0642 84.9398 53.422C84.2997 52.7797 83.9401 51.9086 83.9401 51.0004Z" fill="#361281"/>
  <path d="M87.3533 54.425C89.2383 54.425 90.7665 52.8917 90.7665 51.0004C90.7665 49.109 89.2383 47.5757 87.3533 47.5757C85.4683 47.5757 83.9401 49.109 83.9401 51.0004C83.9401 52.8917 85.4683 54.425 87.3533 54.425Z" fill="#361281" stroke="#D5FF2F" stroke-width="1.5" stroke-miterlimit="10"/>
</svg>