<svg xmlns="http://www.w3.org/2000/svg" width="107" height="108" viewBox="0 0 107 108" fill="none">
<path d="M70.3919 34.9537C68.5987 31.8858 65.3121 30 61.7585 30H28.239C24.6852 30 21.3985 31.886 19.6053 34.9542L2.94893 63.4542C1.12713 66.5714 1.12714 70.4286 2.94894 73.5458L19.6053 102.046C21.3985 105.114 24.6852 107 28.239 107H61.7585C65.3121 107 68.5987 105.114 70.3919 102.046L87.0504 73.5463C88.8726 70.4288 88.8726 66.5712 87.0504 63.4537L70.3919 34.9537ZM60.212 84.6306C58.4188 87.6985 55.1321 89.5844 51.5785 89.5844H38.4071C34.8535 89.5844 31.5669 87.6985 29.7737 84.6306L23.295 73.5462C21.4729 70.4288 21.4729 66.5712 23.295 63.4538L29.7737 52.3694C31.5669 49.3015 34.8535 47.4156 38.4071 47.4156H51.5785C55.1321 47.4156 58.4188 49.3015 60.212 52.3694L66.6907 63.4538C68.5128 66.5712 68.5128 70.4288 66.6907 73.5462L60.212 84.6306Z" fill="#361281" stroke="#D5FF2F" stroke-width="2" stroke-miterlimit="10"/>
<path d="M94.7007 3.44931C93.8001 1.93094 92.1656 1 90.4002 1H70.5983C68.8329 1 67.1983 1.93104 66.2977 3.44956L56.5125 19.9496C55.58 21.522 55.58 23.478 56.5125 25.0504L66.2977 41.5504C67.1983 43.069 68.8329 44 70.5983 44H90.4002C92.1656 44 93.8001 43.0691 94.7007 41.5507L104.487 25.0507C105.42 23.4781 105.42 21.5219 104.487 19.9493L94.7007 3.44931ZM88.9321 31.825C88.0315 33.3434 86.397 34.2744 84.6316 34.2744H76.3603C74.5949 34.2744 72.9604 33.3434 72.0598 31.825L68.0419 25.0506C67.1092 23.4781 67.1092 21.5219 68.0419 19.9494L72.0598 13.175C72.9604 11.6566 74.5949 10.7256 76.3603 10.7256H84.6316C86.397 10.7256 88.0315 11.6566 88.9321 13.175L92.95 19.9494C93.8826 21.5219 93.8826 23.4781 92.95 25.0506L88.9321 31.825Z" fill="#361281" stroke="#D5FF2F" stroke-width="2" stroke-miterlimit="10"/>
</svg>